<svg width="161" height="36" viewBox="0 0 161 36" fill="none" xmlns="http://www.w3.org/2000/svg">
<path d="M9.98863 35.3864L-2.74181e-06 0.477276H8.0625L13.8409 24.733H14.1307L20.5057 0.477276H27.4091L33.767 24.7841H34.0739L39.8523 0.477276H47.9148L37.9261 35.3864H30.733L24.0852 12.5625H23.8125L17.1818 35.3864H9.98863ZM59.2457 0.477276V35.3864H51.8651V0.477276H59.2457ZM94.517 0.477276V35.3864H88.142L72.9545 13.4148H72.6989V35.3864H65.3182V0.477276H71.7955L86.8636 22.4318H87.1705V0.477276H94.517ZM100.615 35.3864V0.477276H123.729V6.5625H107.996V14.8807H122.195V20.9659H107.996V35.3864H100.615ZM160.773 17.9318C160.773 21.7386 160.051 24.9773 158.608 27.6477C157.176 30.3182 155.222 32.358 152.744 33.767C150.278 35.1648 147.506 35.8636 144.426 35.8636C141.324 35.8636 138.54 35.1591 136.074 33.75C133.608 32.3409 131.659 30.3011 130.227 27.6307C128.795 24.9602 128.08 21.7273 128.08 17.9318C128.08 14.125 128.795 10.8864 130.227 8.21591C131.659 5.54546 133.608 3.51137 136.074 2.11364C138.54 0.704549 141.324 2.86102e-06 144.426 2.86102e-06C147.506 2.86102e-06 150.278 0.704549 152.744 2.11364C155.222 3.51137 157.176 5.54546 158.608 8.21591C160.051 10.8864 160.773 14.125 160.773 17.9318ZM153.29 17.9318C153.29 15.4659 152.92 13.3864 152.182 11.6932C151.455 10 150.426 8.71591 149.097 7.84091C147.767 6.96591 146.21 6.52841 144.426 6.52841C142.642 6.52841 141.085 6.96591 139.756 7.84091C138.426 8.71591 137.392 10 136.653 11.6932C135.926 13.3864 135.562 15.4659 135.562 17.9318C135.562 20.3977 135.926 22.4773 136.653 24.1705C137.392 25.8636 138.426 27.1477 139.756 28.0227C141.085 28.8977 142.642 29.3352 144.426 29.3352C146.21 29.3352 147.767 28.8977 149.097 28.0227C150.426 27.1477 151.455 25.8636 152.182 24.1705C152.92 22.4773 153.29 20.3977 153.29 17.9318Z" fill="white"/>
</svg>
